<svg id="Layer_1" data-name="Layer 1" xmlns="http://www.w3.org/2000/svg" viewBox="0 0 2050.12 820.23" style="background-color: white;"><defs><style>.cls-1{fill:#c9f0ff;}.cls-1,.cls-3,.cls-4,.cls-9{stroke:#000;}.cls-1,.cls-10,.cls-11,.cls-3,.cls-4,.cls-6,.cls-7,.cls-8,.cls-9{stroke-miterlimit:10;stroke-width:3px;}.cls-2{font-size:45.43px;}.cls-12,.cls-2{font-family:MyriadPro-Regular, Myriad Pro;}.cls-10,.cls-11,.cls-3,.cls-5{fill:#fff;}.cls-4{fill:#e0eed3;}.cls-6,.cls-7,.cls-8{fill:none;}.cls-11,.cls-6,.cls-7,.cls-8{stroke:#91bc62;}.cls-7{stroke-dasharray:12.16 12.16;}.cls-8{stroke-dasharray:12.2 12.2;}.cls-9{fill:#f3c8fe;}.cls-10{stroke:#db84f7;}.cls-10,.cls-11{stroke-dasharray:12;}.cls-12{font-size:48.53px;}</style></defs><rect class="cls-1" x="427.14" y="320.76" width="111.04" height="113.57"/><rect class="cls-1" x="319.43" y="320.76" width="111.04" height="113.57"/><rect class="cls-1" x="211.77" y="320.76" width="111.04" height="113.57"/><text class="cls-2" transform="translate(255.45 392.66)">4</text><text class="cls-2" transform="translate(470.79 392.66)">2</text><text class="cls-2" transform="translate(363.13 392.66)">3</text><rect class="cls-3" x="427.14" y="109.32" width="111.04" height="113.57"/><rect class="cls-3" x="534.79" y="109.32" width="111.04" height="113.57"/><rect class="cls-4" x="319.48" y="109.32" width="111.04" height="113.57"/><rect class="cls-4" x="211.77" y="109.32" width="111.04" height="113.57"/><rect class="cls-4" x="104.11" y="109.32" width="111.04" height="113.57"/><text class="cls-2" transform="translate(148.25 181.22)">0</text><text class="cls-2" transform="translate(255.93 181.22)">1</text><text class="cls-2" transform="translate(363.59 181.22)">2</text><line class="cls-5" x1="104.11" y1="222.89" x2="211.68" y2="321.19"/><line class="cls-6" x1="104.11" y1="222.89" x2="108.54" y2="226.94"/><line class="cls-7" x1="117.51" y1="235.14" x2="202.76" y2="313.04"/><line class="cls-6" x1="207.25" y1="317.14" x2="211.68" y2="321.19"/><line class="cls-5" x1="430.52" y1="222.89" x2="538.68" y2="321.19"/><line class="cls-6" x1="430.52" y1="222.89" x2="434.96" y2="226.93"/><line class="cls-8" x1="443.99" y1="235.13" x2="529.72" y2="313.05"/><line class="cls-6" x1="534.24" y1="317.15" x2="538.68" y2="321.19"/><rect class="cls-3" x="427.37" y="519.17" width="111.04" height="113.57"/><rect class="cls-3" x="319.66" y="519.17" width="111.04" height="113.57"/><rect class="cls-9" x="212" y="519.17" width="111.04" height="113.57"/><text class="cls-2" transform="translate(256.69 591.07)">7</text><line class="cls-10" x1="211.68" y1="434.69" x2="212" y2="519.17"/><line class="cls-10" x1="538.68" y1="434.19" x2="323.05" y2="519.17"/><rect class="cls-1" x="1077.3" y="320.35" width="111.04" height="113.57"/><rect class="cls-1" x="969.59" y="320.35" width="111.04" height="113.57"/><rect class="cls-1" x="861.93" y="320.35" width="111.04" height="113.57"/><text class="cls-2" transform="translate(905.62 392.25)">4</text><text class="cls-2" transform="translate(1120.95 392.25)">2</text><text class="cls-2" transform="translate(1013.3 392.25)">3</text><rect class="cls-4" x="1077.3" y="108.92" width="111.04" height="113.57"/><rect class="cls-3" x="1184.96" y="108.92" width="111.04" height="113.57"/><rect class="cls-4" x="969.65" y="108.92" width="111.04" height="113.57"/><rect class="cls-4" x="861.93" y="108.92" width="111.04" height="113.57"/><rect class="cls-3" x="754.28" y="108.92" width="111.04" height="113.57"/><text class="cls-2" transform="translate(1121.41 180.82)">3</text><text class="cls-2" transform="translate(906.1 180.82)">1</text><text class="cls-2" transform="translate(1013.75 180.82)">2</text><rect class="cls-3" x="1077.54" y="518.77" width="111.04" height="113.57"/><rect class="cls-9" x="969.83" y="518.77" width="111.04" height="113.57"/><rect class="cls-3" x="862.17" y="518.77" width="111.04" height="113.57"/><text class="cls-2" transform="translate(905.85 590.67)">7</text><rect class="cls-1" x="1727.3" y="320.35" width="111.04" height="113.57"/><rect class="cls-1" x="1619.59" y="320.35" width="111.04" height="113.57"/><rect class="cls-1" x="1511.93" y="320.35" width="111.04" height="113.57"/><text class="cls-2" transform="translate(1555.62 392.25)">4</text><text class="cls-2" transform="translate(1770.95 392.25)">2</text><text class="cls-2" transform="translate(1663.3 392.25)">3</text><rect class="cls-4" x="1727.3" y="108.92" width="111.04" height="113.57"/><rect class="cls-4" x="1834.96" y="108.92" width="111.04" height="113.57"/><rect class="cls-4" x="1619.65" y="108.92" width="111.04" height="113.57"/><rect class="cls-3" x="1511.93" y="108.92" width="111.04" height="113.57"/><rect class="cls-3" x="1404.28" y="108.92" width="111.04" height="113.57"/><text class="cls-2" transform="translate(1879.07 180.82)">4</text><text class="cls-2" transform="translate(1771.41 180.82)">3</text><text class="cls-2" transform="translate(1663.75 180.82)">2</text><rect class="cls-9" x="1727.54" y="518.77" width="111.04" height="113.57"/><rect class="cls-3" x="1619.83" y="518.77" width="111.04" height="113.57"/><rect class="cls-3" x="1512.17" y="518.77" width="111.04" height="113.57"/><text class="cls-2" transform="translate(1555.85 590.67)">7</text><line class="cls-11" x1="865.32" y1="222.49" x2="861.68" y2="320.19"/><line class="cls-11" x1="1184.96" y1="222.49" x2="1188.68" y2="320.19"/><line class="cls-11" x1="1622.98" y1="222.49" x2="1511.68" y2="320.19"/><line class="cls-11" x1="1946" y1="222.49" x2="1838.68" y2="320.19"/><line class="cls-10" x1="861.68" y1="434.19" x2="973.21" y2="518.77"/><line class="cls-10" x1="1188.68" y1="434.19" x2="1080.87" y2="518.77"/><line class="cls-10" x1="1511.68" y1="434.19" x2="1730.87" y2="518.77"/><line class="cls-10" x1="1838.68" y1="434.69" x2="1838.58" y2="518.77"/><text class="cls-2" transform="translate(1005.04 590.64)">16</text><text class="cls-2" transform="translate(1652.22 590.57)">16</text><text class="cls-2" transform="translate(1759.2 590.71)">25</text><text class="cls-12" transform="translate(188.15 709.15)"><tspan xml:space="preserve">0•4 + 1•3 + 2•2  = 7</tspan></text><text class="cls-12" transform="translate(825.87 709.15)"><tspan xml:space="preserve">1•4 + 2•3 + 3•2  = 16</tspan></text><text class="cls-12" transform="translate(1475.87 709.15)"><tspan xml:space="preserve">2•4 + 3•3 + 4•2  = 25</tspan></text></svg>
